<svg xmlns="http://www.w3.org/2000/svg" xmlns:xlink="http://www.w3.org/1999/xlink" width="35.768" height="35.768" viewBox="0 0 35.768 35.768">
  <defs>
    <clipPath id="clip-path">
      <rect id="Rectángulo_36" data-name="Rectángulo 36" width="35.768" height="35.768" transform="translate(0 0)" fill="none"/>
    </clipPath>
  </defs>
  <g id="Grupo_77" data-name="Grupo 77" transform="translate(0 0)">
    <g id="Grupo_76" data-name="Grupo 76" clip-path="url(#clip-path)">
      <path id="Trazado_88" data-name="Trazado 88" d="M3.919,0H31.871a3.925,3.925,0,0,1,2.748,1.149,3.843,3.843,0,0,1,1.148,2.77V31.871a3.921,3.921,0,0,1-3.9,3.9H3.919a3.844,3.844,0,0,1-2.771-1.149A3.921,3.921,0,0,1,0,31.871V3.919A3.921,3.921,0,0,1,3.919,0ZM18.447,15.925a1.119,1.119,0,0,1,1.374-.789,1.1,1.1,0,0,1,.788,1.352L17.321,28.809a1.12,1.12,0,1,1-2.162-.586Zm4.64,11.4a1.085,1.085,0,0,1-1.532-.36,1.1,1.1,0,0,1,.338-1.532l3.942-2.455L21.893,20.5a1.1,1.1,0,0,1-.338-1.531,1.124,1.124,0,0,1,1.532-.361l5.451,3.4a1.175,1.175,0,0,1,.36.383,1.127,1.127,0,0,1-.36,1.531ZM13.875,25.43a1.128,1.128,0,0,1,.36,1.532,1.089,1.089,0,0,1-1.532.36l-5.473-3.4a1.129,1.129,0,0,1-.36-1.532,1.228,1.228,0,0,1,.383-.383L12.7,18.6A1.113,1.113,0,0,1,13.875,20.5L9.933,22.974l3.942,2.455Zm-2.7-20.947a1.11,1.11,0,0,1,1.126,1.1,1.115,1.115,0,1,1-2.23,0,1.106,1.106,0,0,1,1.1-1.1m3.356,0H27.952a1.106,1.106,0,0,1,1.1,1.1,1.125,1.125,0,0,1-1.1,1.126H14.528a1.125,1.125,0,0,1-1.1-1.126,1.106,1.106,0,0,1,1.1-1.1m-6.712,0a1.11,1.11,0,0,1,1.126,1.1,1.115,1.115,0,1,1-2.23,0,1.1,1.1,0,0,1,1.1-1.1m25.722,6.689H2.229v20.7a1.691,1.691,0,0,0,.5,1.172,1.65,1.65,0,0,0,1.194.495H31.871a1.691,1.691,0,0,0,1.666-1.667ZM4.122,2.23A1.923,1.923,0,0,0,2.23,4.122v4.82H33.538V4.122a1.8,1.8,0,0,0-.563-1.329,1.89,1.89,0,0,0-1.329-.563Z" fill="#fff"/>
    </g>
  </g>
</svg>
