<svg xmlns="http://www.w3.org/2000/svg" width="33.682" height="33.682" viewBox="0 0 33.682 33.682">
  <path id="Trazado_99" data-name="Trazado 99" d="M190.357,380.85H216.68a3.691,3.691,0,0,1,2.587,1.082,3.617,3.617,0,0,1,1.082,2.608v26.323a3.695,3.695,0,0,1-3.669,3.669H190.357a3.614,3.614,0,0,1-2.61-1.082,3.689,3.689,0,0,1-1.08-2.587V384.54a3.691,3.691,0,0,1,3.69-3.69m13.681,15a1.055,1.055,0,0,1,1.294-.743,1.033,1.033,0,0,1,.743,1.274l-3.1,11.6a1.055,1.055,0,1,1-2.037-.552Zm4.37,10.732a1.02,1.02,0,0,1-1.442-.339,1.036,1.036,0,0,1,.318-1.442l3.711-2.312-3.711-2.333a1.032,1.032,0,0,1-.318-1.442,1.057,1.057,0,0,1,1.442-.339l5.132,3.2a1.107,1.107,0,0,1,.339.36,1.062,1.062,0,0,1-.339,1.444l-5.132,3.2Zm-8.676-1.781a1.061,1.061,0,0,1,.339,1.442,1.024,1.024,0,0,1-1.442.339l-5.155-3.2a1.064,1.064,0,0,1-.339-1.442,1.171,1.171,0,0,1,.362-.36l5.132-3.2a1.048,1.048,0,1,1,1.1,1.781l-3.711,2.333Zm-2.545-19.726a1.047,1.047,0,0,1,1.061,1.04,1.05,1.05,0,1,1-2.1,0,1.042,1.042,0,0,1,1.039-1.04m3.161,0h12.64a1.042,1.042,0,0,1,1.04,1.04,1.06,1.06,0,0,1-1.04,1.061h-12.64a1.061,1.061,0,0,1-1.04-1.061,1.043,1.043,0,0,1,1.04-1.04m-6.322,0a1.047,1.047,0,0,1,1.061,1.04,1.05,1.05,0,1,1-2.1,0,1.042,1.042,0,0,1,1.039-1.04m24.223,6.3H188.767v19.493a1.585,1.585,0,0,0,.466,1.1,1.551,1.551,0,0,0,1.124.466H216.68a1.592,1.592,0,0,0,1.569-1.569Zm-27.7-8.42a1.813,1.813,0,0,0-1.781,1.781v4.539h29.482v-4.539a1.691,1.691,0,0,0-.531-1.251,1.774,1.774,0,0,0-1.251-.531Z" transform="translate(-186.667 -380.85)" fill="#534c9b"/>
</svg>
