<svg xmlns="http://www.w3.org/2000/svg" xmlns:xlink="http://www.w3.org/1999/xlink" width="34.959" height="30.589" viewBox="0 0 34.959 30.589">
  <defs>
    <clipPath id="clip-path">
      <rect id="Rectángulo_35" data-name="Rectángulo 35" width="34.959" height="30.589" transform="translate(0 0)" fill="none"/>
    </clipPath>
  </defs>
  <g id="Grupo_75" data-name="Grupo 75" transform="translate(0 0)">
    <g id="Grupo_74" data-name="Grupo 74" clip-path="url(#clip-path)">
      <path id="Trazado_87" data-name="Trazado 87" d="M27.967,15.076a2.2,2.2,0,0,0-2.621,0l-5.522,4.14L12.531,10.25l-.091-.1a2.181,2.181,0,0,0-3.014-.071l-6.8,7.5V4.673A2.055,2.055,0,0,1,4.673,2.621H30.285a2.054,2.054,0,0,1,2.051,2.052v13.68Zm4.37,10.84a2.055,2.055,0,0,1-2.051,2.051H4.673a2.055,2.055,0,0,1-2.051-2.051V21.481l8.256-9.109,7.233,8.9.09.1a2.193,2.193,0,0,0,2.855.2l5.6-4.2,5.681,4.261ZM30.286,0H4.673A4.677,4.677,0,0,0,0,4.673V25.916a4.677,4.677,0,0,0,4.673,4.673H30.286a4.677,4.677,0,0,0,4.673-4.673V4.673A4.677,4.677,0,0,0,30.286,0M26.219,8.3a1.749,1.749,0,1,0,1.514.874A1.747,1.747,0,0,0,26.219,8.3" fill="#fff"/>
    </g>
  </g>
</svg>
