<svg xmlns="http://www.w3.org/2000/svg" width="33.879" height="29.645" viewBox="0 0 33.879 29.645">
  <g id="Grupo_373" data-name="Grupo 373" transform="translate(-161.325 -508.382)">
    <path id="Trazado_100" data-name="Trazado 100" d="M159.55,396.849a2.129,2.129,0,0,0-2.541,0l-5.35,4.012-7.069-8.689-.087-.1a2.116,2.116,0,0,0-2.922-.068l-6.593,7.27v-12.51a1.986,1.986,0,0,1,1.988-1.986H161.8a1.986,1.986,0,0,1,1.988,1.986v13.258Zm4.236,10.5a1.993,1.993,0,0,1-1.988,1.988H136.975a1.99,1.99,0,0,1-1.988-1.988v-4.3l8-8.827,7.01,8.619.087.1a2.123,2.123,0,0,0,2.767.2l5.426-4.069,5.507,4.129ZM161.8,382.238H136.975a4.536,4.536,0,0,0-4.529,4.529v20.587a4.536,4.536,0,0,0,4.529,4.529H161.8a4.533,4.533,0,0,0,4.527-4.529V386.767a4.532,4.532,0,0,0-4.527-4.529m-3.942,8.047a1.7,1.7,0,1,0,1.467.847,1.7,1.7,0,0,0-1.467-.847" transform="translate(28.879 126.144)" fill="#534c9b"/>
  </g>
</svg>
