<svg xmlns="http://www.w3.org/2000/svg" width="33.269" height="38.459" viewBox="0 0 33.269 38.459">
  <g id="Grupo_372" data-name="Grupo 372" transform="translate(-60.817 -445.891)">
    <path id="Trazado_92" data-name="Trazado 92" d="M103.827,384.116a3.061,3.061,0,0,0-3.061-3.061H79.787a3.016,3.016,0,0,0-3.015,3.015v26.782a3.013,3.013,0,0,0,3.015,3.013h21.024a3.014,3.014,0,0,0,3.015-3.013V384.116Zm-2.268,2.833v22.91A1.739,1.739,0,0,1,99.82,411.6H80.778a1.738,1.738,0,0,1-1.738-1.738v-24.8a1.736,1.736,0,0,1,1.738-1.738h19a1.736,1.736,0,0,1,1.736,1.7Z" transform="translate(-15.955 70.485)" fill="#534c9b"/>
    <path id="Trazado_93" data-name="Trazado 93" d="M94.715,386.525H80.6a.873.873,0,0,1,0-1.745H94.715a.873.873,0,0,1,0,1.745" transform="translate(-13.312 73.82)" fill="#534c9b"/>
    <path id="Trazado_94" data-name="Trazado 94" d="M94.715,388.759H80.6a.872.872,0,1,1,0-1.743H94.715a.872.872,0,1,1,0,1.743" transform="translate(-13.312 75.821)" fill="#534c9b"/>
    <path id="Trazado_95" data-name="Trazado 95" d="M94.715,391H80.6a.873.873,0,0,1,0-1.745H94.715a.873.873,0,0,1,0,1.745" transform="translate(-13.312 77.822)" fill="#534c9b"/>
    <path id="Trazado_96" data-name="Trazado 96" d="M94.715,393.23H80.6a.873.873,0,0,1,0-1.745H94.715a.873.873,0,0,1,0,1.745" transform="translate(-13.312 79.821)" fill="#534c9b"/>
    <path id="Trazado_97" data-name="Trazado 97" d="M94.715,395.466H80.6a.873.873,0,0,1,0-1.745H94.715a.873.873,0,0,1,0,1.745" transform="translate(-13.312 81.823)" fill="#534c9b"/>
    <path id="Trazado_98" data-name="Trazado 98" d="M104.045,378.074H83.066a3.014,3.014,0,0,0-3.015,3.015v1.22h2.268v-.229a1.737,1.737,0,0,1,1.736-1.738h19.006a1.736,1.736,0,0,1,1.736,1.7l.04,1.925v22.908a1.738,1.738,0,0,1-1.738,1.738h-.794v2.268h1.785a3.016,3.016,0,0,0,3.015-3.015V381.135A3.06,3.06,0,0,0,104.045,378.074Z" transform="translate(-13.02 67.817)" fill="#534c9b"/>
  </g>
</svg>
