<svg xmlns="http://www.w3.org/2000/svg" xmlns:xlink="http://www.w3.org/1999/xlink" width="92.331" height="62.993" viewBox="0 0 92.331 62.993">
  <defs>
    <clipPath id="clip-path">
      <rect id="Rectángulo_76" data-name="Rectángulo 76" width="92.331" height="62.993" transform="translate(0 0)" fill="none"/>
    </clipPath>
  </defs>
  <g id="Grupo_167" data-name="Grupo 167" transform="translate(0 0)">
    <g id="Grupo_166" data-name="Grupo 166" clip-path="url(#clip-path)">
      <path id="Trazado_136" data-name="Trazado 136" d="M28.494,35.063a4.116,4.116,0,0,0,2.195-1.329L53.426,5.387A2.453,2.453,0,0,0,51.512,1.4,3.246,3.246,0,0,0,48.98,2.613L28.155,28.545a.622.622,0,0,1-.967,0L5.917,2.476A2.927,2.927,0,0,0,3.648,1.4,2.513,2.513,0,0,0,1.136,3.912V46.763a2.687,2.687,0,0,0,2.117,2.676A2.69,2.69,0,0,0,6.458,46.8V13.744a.777.777,0,0,1,1.37-.5L25.164,33.809a3.641,3.641,0,0,0,3.33,1.254" fill="#fff"/>
      <path id="Trazado_137" data-name="Trazado 137" d="M89.936,0h-.847a2.655,2.655,0,0,0-2.655,2.655V24.091a1.073,1.073,0,0,1-1.894.692L65.275,1.929a2.6,2.6,0,0,0-1.985-.923H62.135a2.775,2.775,0,0,0-2.167,1.04L34.6,33.67a2.883,2.883,0,0,0,4.5,3.6L61.322,9.606a2.071,2.071,0,0,1,3.221-.012l22.433,27.5a3.437,3.437,0,0,0,2.662,1.263h.252a2.44,2.44,0,0,0,2.441-2.44V2.395A2.4,2.4,0,0,0,89.936,0" fill="#fff"/>
      <path id="Trazado_138" data-name="Trazado 138" d="M4.694,53.6A4.694,4.694,0,1,0,9.388,58.3,4.694,4.694,0,0,0,4.694,53.6" fill="#fff"/>
    </g>
  </g>
</svg>
