<svg xmlns="http://www.w3.org/2000/svg" xmlns:xlink="http://www.w3.org/1999/xlink" width="100.661" height="102.017" viewBox="0 0 100.661 102.017">
  <defs>
    <linearGradient id="linear-gradient" y1="0.571" x2="1" y2="0.571" gradientUnits="objectBoundingBox">
      <stop offset="0" stop-color="#ae80f5"/>
      <stop offset="0.492" stop-color="#7c5fbb"/>
      <stop offset="1" stop-color="#4c4084"/>
    </linearGradient>
    <clipPath id="clip-path">
      <rect id="Rectángulo_72" data-name="Rectángulo 72" width="100.661" height="102.017" rx="1.513" fill="url(#linear-gradient)"/>
    </clipPath>
    <clipPath id="clip-path-2">
      <rect id="Rectángulo_75" data-name="Rectángulo 75" width="45.919" height="45.919" transform="translate(0 0)" fill="none"/>
    </clipPath>
  </defs>
  <g id="Grupo_240" data-name="Grupo 240" transform="translate(-1298.13 -799)">
    <g id="Grupo_163" data-name="Grupo 163" transform="translate(1298.13 799)">
      <g id="Grupo_154" data-name="Grupo 154" clip-path="url(#clip-path)">
        <rect id="Rectángulo_71" data-name="Rectángulo 71" width="100.661" height="102.017" fill="url(#linear-gradient)"/>
      </g>
    </g>
    <g id="Grupo_165" data-name="Grupo 165" transform="translate(1325.501 827.049)">
      <g id="Grupo_164" data-name="Grupo 164" clip-path="url(#clip-path-2)">
        <path id="Trazado_135" data-name="Trazado 135" d="M5.031,0H40.916a5.036,5.036,0,0,1,3.528,1.475,4.931,4.931,0,0,1,1.475,3.557V40.917a5.036,5.036,0,0,1-5,5H5.031a4.935,4.935,0,0,1-3.557-1.475A5.037,5.037,0,0,1,0,40.917V5.032A5.034,5.034,0,0,1,5.031,0ZM23.683,20.445a1.436,1.436,0,0,1,1.764-1.013,1.406,1.406,0,0,1,1.012,1.735L22.237,36.985a1.438,1.438,0,1,1-2.776-.752Zm5.956,14.631a1.392,1.392,0,0,1-1.966-.462,1.414,1.414,0,0,1,.434-1.966l5.06-3.152-5.06-3.181a1.408,1.408,0,0,1-.434-1.966,1.441,1.441,0,0,1,1.966-.463l7,4.367a1.508,1.508,0,0,1,.463.491,1.449,1.449,0,0,1-.463,1.967l-7,4.366ZM17.813,32.648a1.447,1.447,0,0,1,.462,1.966,1.4,1.4,0,0,1-1.966.462L9.282,30.71a1.447,1.447,0,0,1-.462-1.966,1.59,1.59,0,0,1,.491-.492l7-4.367a1.428,1.428,0,1,1,1.5,2.429L12.753,29.5l5.06,3.152ZM14.343,5.755a1.426,1.426,0,0,1,1.446,1.417,1.432,1.432,0,1,1-2.863,0,1.42,1.42,0,0,1,1.417-1.417m4.308,0H35.886A1.42,1.42,0,0,1,37.3,7.172a1.444,1.444,0,0,1-1.417,1.446H18.651a1.445,1.445,0,0,1-1.417-1.446,1.42,1.42,0,0,1,1.417-1.417m-8.617,0A1.426,1.426,0,0,1,11.48,7.172a1.432,1.432,0,1,1-2.863,0,1.42,1.42,0,0,1,1.417-1.417m33.023,8.588H2.862V40.917a2.169,2.169,0,0,0,.636,1.5,2.118,2.118,0,0,0,1.533.636H40.916a2.172,2.172,0,0,0,2.14-2.14ZM5.292,2.863A2.47,2.47,0,0,0,2.863,5.292V11.48H43.057V5.292a2.312,2.312,0,0,0-.723-1.706,2.424,2.424,0,0,0-1.706-.723Z" fill="#fff"/>
      </g>
    </g>
  </g>
</svg>
