<svg xmlns="http://www.w3.org/2000/svg" width="49.412" height="18.561" viewBox="0 0 49.412 18.561">
  <g id="Grupo_507" data-name="Grupo 507" transform="translate(-99.759 -297.172)">
    <path id="Trazado_292" data-name="Trazado 292" d="M240.779,529.9H290.19L285.9,540.489a12.766,12.766,0,0,1-11.83,7.969H256.9a12.766,12.766,0,0,1-11.83-7.969Z" transform="translate(-141.02 -232.725)" fill="#f2f2f4"/>
    <path id="Trazado_293" data-name="Trazado 293" d="M283.952,546.376h0a2.01,2.01,0,0,1-2.01-2.009v-6.394a2.009,2.009,0,0,1,4.019,0v6.394a2.01,2.01,0,0,1-2.009,2.009" transform="translate(-159.486 -235.447)" fill="#fff"/>
    <path id="Trazado_294" data-name="Trazado 294" d="M276.144,545.5v-3.466a.276.276,0,0,1,.276-.276h9.861a.276.276,0,0,1,.276.276V545.5a.277.277,0,0,1-.276.277H276.42a.276.276,0,0,1-.276-.277" transform="translate(-156.885 -238.048)" fill="#fff"/>
  </g>
</svg>
