<svg xmlns="http://www.w3.org/2000/svg" xmlns:xlink="http://www.w3.org/1999/xlink" width="100.661" height="102.017" viewBox="0 0 100.661 102.017">
  <defs>
    <linearGradient id="linear-gradient" y1="0.571" x2="1" y2="0.571" gradientUnits="objectBoundingBox">
      <stop offset="0" stop-color="#ae80f5"/>
      <stop offset="0.492" stop-color="#7c5fbb"/>
      <stop offset="1" stop-color="#4c4084"/>
    </linearGradient>
    <clipPath id="clip-path">
      <rect id="Rectángulo_72" data-name="Rectángulo 72" width="100.661" height="102.017" rx="1.513" fill="url(#linear-gradient)"/>
    </clipPath>
    <clipPath id="clip-path-2">
      <rect id="Rectángulo_74" data-name="Rectángulo 74" width="46.189" height="40.415" transform="translate(0 0)" fill="none"/>
    </clipPath>
  </defs>
  <g id="Grupo_241" data-name="Grupo 241" transform="translate(-856 -799)">
    <g id="Grupo_159" data-name="Grupo 159" transform="translate(856 799)">
      <g id="Grupo_154" data-name="Grupo 154" clip-path="url(#clip-path)">
        <rect id="Rectángulo_71" data-name="Rectángulo 71" width="100.661" height="102.017" fill="url(#linear-gradient)"/>
      </g>
    </g>
    <g id="Grupo_161" data-name="Grupo 161" transform="translate(883.236 825.792)">
      <g id="Grupo_160" data-name="Grupo 160" clip-path="url(#clip-path-2)">
        <path id="Trazado_134" data-name="Trazado 134" d="M36.951,19.919a2.9,2.9,0,0,0-3.463,0l-7.295,5.469L16.557,13.542l-.12-.133a2.883,2.883,0,0,0-3.983-.093l-8.989,9.91V6.173a2.713,2.713,0,0,1,2.71-2.71h33.84a2.714,2.714,0,0,1,2.71,2.71V24.248Zm5.774,14.322a2.714,2.714,0,0,1-2.71,2.71H6.175a2.714,2.714,0,0,1-2.71-2.71V28.382L14.372,16.346,23.93,28.1l.119.131a2.9,2.9,0,0,0,3.772.269l7.4-5.548,7.506,5.629ZM40.015,0H6.175A6.181,6.181,0,0,0,0,6.174V34.241a6.181,6.181,0,0,0,6.175,6.174h33.84a6.18,6.18,0,0,0,6.174-6.174V6.174A6.18,6.18,0,0,0,40.015,0M34.642,10.97a2.309,2.309,0,1,0,2,1.154,2.31,2.31,0,0,0-2-1.154" fill="#fff"/>
      </g>
    </g>
  </g>
</svg>
