<svg xmlns="http://www.w3.org/2000/svg" width="20.499" height="20.499" viewBox="0 0 20.499 20.499">
  <g id="Grupo_372" data-name="Grupo 372" transform="translate(-175.348 -210.478)">
    <path id="Trazado_156" data-name="Trazado 156" d="M154.7,286.259a10.25,10.25,0,1,1-10.25-10.25,10.249,10.249,0,0,1,10.25,10.25" transform="translate(41.148 -65.531)" fill="#7f6adb"/>
    <path id="Trazado_157" data-name="Trazado 157" d="M140.7,290.208h0a2.3,2.3,0,0,1-2.3-2.3v-7.333a2.3,2.3,0,1,1,4.609,0V287.9a2.3,2.3,0,0,1-2.3,2.3" transform="translate(44.901 -63.51)" fill="#fff"/>
    <path id="Trazado_158" data-name="Trazado 158" d="M136.457,282.506h0a2.3,2.3,0,0,1,2.3-2.3h7.333a2.3,2.3,0,0,1,0,4.609h-7.333a2.3,2.3,0,0,1-2.3-2.3" transform="translate(43.169 -61.778)" fill="#fff"/>
  </g>
</svg>
